<svg xmlns="http://www.w3.org/2000/svg" version="1.1" xmlns:xlink="http://www.w3.org/1999/xlink" xmlns:svgjs="http://svgjs.dev/svgjs" width="1500" height="329" viewBox="0 0 1500 329"><g transform="matrix(1,0,0,1,-0.9090909090909918,0.09151845254444879)"><svg viewBox="0 0 396 87" data-background-color="#f5ba41" preserveAspectRatio="xMidYMid meet" height="329" width="1500" xmlns="http://www.w3.org/2000/svg" xmlns:xlink="http://www.w3.org/1999/xlink"><g id="tight-bounds" transform="matrix(1,0,0,1,0.2400000000000091,-0.0242009281804485)"><svg viewBox="0 0 395.52 87.04840185636091" height="87.04840185636091" width="395.52"><g><svg viewBox="0 0 656.3583079245432 144.4552532109039" height="87.04840185636091" width="395.52"><g transform="matrix(1,0,0,1,260.8383079245433,19.96451039311335)"><svg viewBox="0 0 395.5199999999999 104.52623242467719" height="104.52623242467719" width="395.5199999999999"><g id="textblocktransform"><svg viewBox="0 0 395.5199999999999 104.52623242467719" height="104.52623242467719" width="395.5199999999999" id="textblock"><g><svg viewBox="0 0 395.5199999999999 104.52623242467719" height="104.52623242467719" width="395.5199999999999"><g transform="matrix(1,0,0,1,0,0)"><svg width="395.5199999999999" viewBox="2.55 -36.8 174.23999999999998 46.05" height="104.52623242467719" data-palette-color="#ffffff"><path d="M7.4-12.95L7.4-12.95Q7.4-10.95 7.8-9.22 8.2-7.5 9.1-6.23 10-4.95 11.43-4.23 12.85-3.5 14.85-3.5L14.85-3.5Q16.75-3.5 18.35-4.15 19.95-4.8 20.8-5.5L20.8-5.5 20.8-21.9Q20.1-22.1 18.93-22.25 17.75-22.4 15.65-22.4L15.65-22.4Q11.9-22.4 9.65-19.95 7.4-17.5 7.4-12.95ZM2.55-12.95L2.55-12.95Q2.55-16.1 3.48-18.63 4.4-21.15 6.1-22.9 7.8-24.65 10.2-25.6 12.6-26.55 15.6-26.55L15.6-26.55Q18.85-26.55 21.33-26.08 23.8-25.6 25.45-25.2L25.45-25.2 25.45 9.25 20.8 9.25 20.8-1.15Q19.95-0.6 18.23 0 16.5 0.6 14.25 0.6L14.25 0.6Q11.45 0.6 9.28-0.4 7.1-1.4 5.6-3.2 4.1-5 3.33-7.5 2.55-10 2.55-12.95ZM54.15-26L54.15-0.75Q52.55-0.35 49.92 0.1 47.3 0.55 43.85 0.55L43.85 0.55Q40.85 0.55 38.8-0.33 36.75-1.2 35.5-2.8 34.25-4.4 33.7-6.58 33.15-8.75 33.15-11.4L33.15-11.4 33.15-26 37.8-26 37.8-12.4Q37.8-7.65 39.3-5.6 40.8-3.55 44.35-3.55L44.35-3.55Q45.1-3.55 45.9-3.6 46.7-3.65 47.4-3.73 48.1-3.8 48.67-3.88 49.25-3.95 49.5-4.05L49.5-4.05 49.5-26 54.15-26ZM66.8-26L66.8 0 62.15 0 62.15-26 66.8-26ZM64.45-30.7L64.45-30.7Q63.2-30.7 62.32-31.53 61.45-32.35 61.45-33.75L61.45-33.75Q61.45-35.15 62.32-35.98 63.2-36.8 64.45-36.8L64.45-36.8Q65.7-36.8 66.57-35.98 67.45-35.15 67.45-33.75L67.45-33.75Q67.45-32.35 66.57-31.53 65.7-30.7 64.45-30.7ZM92.04-26L92.04-22.5Q90.99-21.35 89.27-19.25 87.54-17.15 85.57-14.6 83.59-12.05 81.62-9.25 79.64-6.45 78.14-3.9L78.14-3.9 92.44-3.9 92.44 0 72.59 0 72.59-3.1Q73.79-5.3 75.54-7.95 77.29-10.6 79.22-13.23 81.14-15.85 82.97-18.18 84.79-20.5 86.14-22.1L86.14-22.1 73.29-22.1 73.29-26 92.04-26ZM107.14-3.35L107.14-3.35Q108.79-3.35 110.07-3.43 111.34-3.5 112.19-3.7L112.19-3.7 112.19-11.45Q111.69-11.7 110.57-11.88 109.44-12.05 107.84-12.05L107.84-12.05Q106.79-12.05 105.62-11.9 104.44-11.75 103.47-11.28 102.49-10.8 101.84-9.98 101.19-9.15 101.19-7.8L101.19-7.8Q101.19-5.3 102.79-4.33 104.39-3.35 107.14-3.35ZM106.74-26.65L106.74-26.65Q109.54-26.65 111.47-25.93 113.39-25.2 114.57-23.88 115.74-22.55 116.24-20.73 116.74-18.9 116.74-16.7L116.74-16.7 116.74-0.45Q116.14-0.35 115.07-0.18 113.99 0 112.64 0.15 111.29 0.3 109.72 0.43 108.14 0.55 106.59 0.55L106.59 0.55Q104.39 0.55 102.54 0.1 100.69-0.35 99.34-1.33 97.99-2.3 97.24-3.9 96.49-5.5 96.49-7.75L96.49-7.75Q96.49-9.9 97.37-11.45 98.24-13 99.74-13.95 101.24-14.9 103.24-15.35 105.24-15.8 107.44-15.8L107.44-15.8Q108.14-15.8 108.89-15.73 109.64-15.65 110.32-15.53 110.99-15.4 111.49-15.3 111.99-15.2 112.19-15.15L112.19-15.15 112.19-16.45Q112.19-17.6 111.94-18.73 111.69-19.85 111.04-20.73 110.39-21.6 109.27-22.13 108.14-22.65 106.34-22.65L106.34-22.65Q104.04-22.65 102.32-22.33 100.59-22 99.74-21.65L99.74-21.65 99.19-25.5Q100.09-25.9 102.19-26.28 104.29-26.65 106.74-26.65ZM142.49-12.95L142.49-12.95Q142.49-17.5 140.24-19.95 137.99-22.4 134.24-22.4L134.24-22.4Q132.14-22.4 130.96-22.25 129.79-22.1 129.09-21.9L129.09-21.9 129.09-5.5Q129.94-4.8 131.54-4.15 133.14-3.5 135.04-3.5L135.04-3.5Q137.04-3.5 138.46-4.23 139.89-4.95 140.79-6.23 141.69-7.5 142.09-9.22 142.49-10.95 142.49-12.95ZM147.34-12.95L147.34-12.95Q147.34-10 146.56-7.5 145.79-5 144.29-3.2 142.79-1.4 140.61-0.4 138.44 0.6 135.64 0.6L135.64 0.6Q133.39 0.6 131.66 0 129.94-0.6 129.09-1.15L129.09-1.15 129.09 9.25 124.44 9.25 124.44-25.2Q126.09-25.6 128.56-26.08 131.04-26.55 134.29-26.55L134.29-26.55Q137.29-26.55 139.69-25.6 142.09-24.65 143.79-22.9 145.49-21.15 146.41-18.63 147.34-16.1 147.34-12.95ZM171.94-12.95L171.94-12.95Q171.94-17.5 169.69-19.95 167.44-22.4 163.69-22.4L163.69-22.4Q161.59-22.4 160.41-22.25 159.24-22.1 158.54-21.9L158.54-21.9 158.54-5.5Q159.39-4.8 160.99-4.15 162.59-3.5 164.49-3.5L164.49-3.5Q166.49-3.5 167.91-4.23 169.34-4.95 170.24-6.23 171.14-7.5 171.54-9.22 171.94-10.95 171.94-12.95ZM176.79-12.95L176.79-12.95Q176.79-10 176.01-7.5 175.24-5 173.74-3.2 172.24-1.4 170.06-0.4 167.89 0.6 165.09 0.6L165.09 0.6Q162.84 0.6 161.11 0 159.39-0.6 158.54-1.15L158.54-1.15 158.54 9.25 153.89 9.25 153.89-25.2Q155.54-25.6 158.01-26.08 160.49-26.55 163.74-26.55L163.74-26.55Q166.74-26.55 169.14-25.6 171.54-24.65 173.24-22.9 174.94-21.15 175.86-18.63 176.79-16.1 176.79-12.95Z" opacity="1" transform="matrix(1,0,0,1,0,0)" fill="#ffffff" class="wordmark-text-0" data-fill-palette-color="primary" id="text-0"></path></svg></g></svg></g></svg></g></svg></g><g><svg viewBox="0 0 236.16217307865523 144.4552532109039" height="144.4552532109039" width="236.16217307865523"><g><svg xmlns="http://www.w3.org/2000/svg" xmlns:xlink="http://www.w3.org/1999/xlink" version="1.1" x="0" y="0" viewBox="4.280035867850395 20 91.71979628105136 56.10300000000001" enable-background="new 0 0 100 100" xml:space="preserve" height="144.4552532109039" width="236.16217307865523" class="icon-icon-0" data-fill-palette-color="accent" id="icon-0"><g fill="#ffffff" data-fill-palette-color="accent"><path d="M68.633 55.761c-0.157 0-0.317 0.01-0.474 0.032-1.972 0.264-3.362 2.081-3.1 4.053 0.238 1.785 1.777 3.131 3.579 3.131 0.158 0 0.317-0.01 0.475-0.031 1.971-0.264 3.361-2.081 3.1-4.054C71.974 57.107 70.435 55.761 68.633 55.761z" fill="#ffffff" data-fill-palette-color="accent"></path><path d="M73.58 34.083c-1.609-1.063-3.733-1.625-6.146-1.625-0.709 0-1.438 0.049-2.166 0.146-2.408 0.321-4.744 1.487-6.41 3.197-1.689 1.736-2.51 3.855-2.248 5.813 0.192 1.445 1.28 2.379 2.771 2.379 0.16 0 0.323-0.012 0.486-0.033 1.992-0.266 2.422-1.638 2.836-2.964 0.473-1.512 0.919-2.939 3.493-3.283 0.264-0.035 0.521-0.053 0.765-0.053 1.853 0 3.003 0.978 3.24 2.754 0.232 1.738-1.142 3.124-2.597 4.591-1.633 1.647-3.484 3.513-3.131 6.16 0.091 0.682 0.392 1.318 0.846 1.791 0.521 0.543 1.203 0.83 1.972 0.83 0.141 0 0.287-0.009 0.432-0.029 2.084-0.278 2.368-1.487 2.642-2.658 0.104-0.442 0.212-0.9 0.42-1.312 0.289-0.576 1.012-1.252 1.851-2.034 2.002-1.871 4.743-4.433 4.236-8.228C76.555 37.148 75.446 35.317 73.58 34.083z" fill="#ffffff" data-fill-palette-color="accent"></path><path d="M95.961 65.606l-5.583-41.84C90.091 21.62 88.243 20 86.078 20c-0.191 0-0.386 0.013-0.577 0.039l-41.839 5.583c-2.372 0.317-4.044 2.504-3.728 4.877l0.319 2.394-27.441-3.965c-0.16-0.023-0.323-0.035-0.484-0.035-1.661 0-3.092 1.241-3.331 2.886L4.315 64.188c-0.128 0.891 0.098 1.777 0.636 2.498 0.539 0.72 1.325 1.188 2.216 1.316l32.408 4.682c0.161 0.022 0.324 0.033 0.484 0.033 1.661 0 3.092-1.239 3.33-2.885l0.932-6.453 1.195 8.957c0.287 2.148 2.135 3.767 4.299 3.767 0.192 0 0.387-0.012 0.578-0.037l41.84-5.585c1.147-0.152 2.169-0.744 2.873-1.665C95.812 67.896 96.114 66.755 95.961 65.606zM40.623 69.434c-0.044 0.307-0.334 0.529-0.647 0.483L7.567 65.235c-0.205-0.029-0.323-0.152-0.376-0.223-0.053-0.071-0.137-0.221-0.108-0.425l4.682-32.409c0.041-0.279 0.283-0.49 0.563-0.49 0.028 0 0.057 0.002 0.084 0.006l28.226 4.077 2.328 17.444L40.623 69.434zM92.244 66.627c-0.069 0.091-0.225 0.248-0.488 0.283l-41.839 5.584c-0.405 0.056-0.774-0.235-0.828-0.633l-5.583-41.839c-0.054-0.403 0.23-0.774 0.633-0.828l41.838-5.584c0.035-0.004 0.067-0.006 0.102-0.006 0.366 0 0.68 0.275 0.728 0.64l5.585 41.84C92.425 66.347 92.312 66.537 92.244 66.627z" fill="#ffffff" data-fill-palette-color="accent"></path><path d="M33.159 41.087c-1.284-1.176-3.186-1.997-5.354-2.31-0.396-0.058-0.803-0.087-1.208-0.087-1.703 0-3.377 0.5-4.717 1.408-1.377 0.934-2.246 2.203-2.443 3.572-0.094 0.651 0.061 1.231 0.45 1.679 0.35 0.402 0.877 0.673 1.485 0.761 0.153 0.022 0.3 0.034 0.44 0.034 1.227 0 1.775-0.837 2.305-1.646 0.591-0.906 1.151-1.762 2.64-1.762 0.206 0 0.429 0.017 0.66 0.05 1.764 0.254 2.645 1.298 2.418 2.864-0.193 1.345-1.513 2.09-2.908 2.877-1.567 0.884-3.344 1.886-3.64 3.937-0.083 0.572 0.033 1.168 0.32 1.633 0.235 0.382 0.695 0.863 1.557 0.988 0.18 0.025 0.351 0.039 0.509 0.039h0.001c1.212 0 1.625-0.745 2.023-1.465 0.171-0.309 0.347-0.628 0.59-0.891 0.337-0.369 1.021-0.721 1.812-1.128 1.89-0.972 4.479-2.306 4.903-5.244C35.303 44.305 34.667 42.469 33.159 41.087z" fill="#ffffff" data-fill-palette-color="accent"></path><path d="M25.057 56.696c-0.132-0.019-0.265-0.03-0.397-0.03-1.383 0-2.576 1.033-2.774 2.4-0.219 1.527 0.844 2.949 2.371 3.17 0.132 0.02 0.266 0.028 0.397 0.028 1.384 0 2.577-1.031 2.774-2.398C27.647 58.339 26.584 56.918 25.057 56.696z" fill="#ffffff" data-fill-palette-color="accent"></path></g></svg></g></svg></g></svg></g><defs></defs></svg><rect width="395.52" height="87.04840185636091" fill="none" stroke="none" visibility="hidden"></rect></g></svg></g></svg>